<svg width="1366" height="549" viewBox="0 0 1366 549" fill="none" xmlns="http://www.w3.org/2000/svg">
<mask id="mask0_4_607" style="mask-type:alpha" maskUnits="userSpaceOnUse" x="0" y="0" width="1366" height="549">
<rect width="1366" height="549" fill="#E3F1E9"/>
</mask>
<g mask="url(#mask0_4_607)">
<path d="M106.433 9.50424C101.025 8.3287 94.3312 6.21909 94.3274 1.92565C94.3313 -0.98792 96.956 -3.68961 98.2358 -6.43025C100.696 -11.7027 97.6838 -17.4458 92.5343 -21.5257C87.2499 -25.7184 79.4617 -28.656 71.1244 -29.5066C67.0297 -29.9286 62.7894 -29.8285 58.7592 -29.1153C54.7127 -28.4017 50.8347 -27.0896 47.2467 -25.6847C39.2629 -22.5471 32.1517 -18.3641 26.3961 -13.6085C20.744 -8.93485 16.1505 -3.51684 14.3901 2.3243C13.5839 5.02086 13.3719 7.8394 14.0816 10.544C14.9417 13.7946 17.3818 16.7819 20.5997 19.2889C27.187 24.4152 37.0804 27.8108 47.1257 29.2408C57.146 30.6556 67.4892 28.9158 74.832 24.0976C78.6676 21.5811 81.2462 18.4999 83.7506 15.4047C85.0226 13.8381 86.5284 12.165 89.2767 11.5751C91.9843 10.9916 94.7561 11.5326 97.246 12.2132C99.3888 12.8077 101.422 13.5531 103.565 14.137C103.945 14.2434 104.311 14.1651 104.549 13.9368C105.602 12.8888 106.855 11.9414 107.517 10.7503C107.825 10.1818 106.417 9.98055 106.109 10.5491C105.509 11.6434 104.246 12.5435 103.28 13.5099C103.614 13.443 103.931 13.3766 104.265 13.3097C100.269 12.2242 96.3289 10.3653 91.7914 10.3991C86.1483 10.4459 83.785 13.3575 81.486 16.2358C79.0296 19.298 76.094 22.2457 72.021 24.5357C68.1328 26.7205 63.3338 28.1676 58.2622 28.6224C47.8743 29.5597 36.8052 26.7446 28.6227 22.8443C24.4397 20.849 20.7478 18.3755 18.2593 15.4107C15.9332 12.6372 14.9736 9.58483 15.1158 6.41384C15.3694 0.590864 19.0792 -5.03147 23.9959 -9.88156C29.1503 -14.9599 35.8906 -19.4399 43.516 -22.9806C50.3436 -26.1462 58.2254 -28.9216 66.7737 -28.8221C75.2894 -28.7217 83.5545 -26.1983 89.4419 -22.3333C95.1534 -18.5748 99.1058 -12.8933 97.1577 -7.49667C96.1654 -4.73709 93.7547 -2.23661 93.0345 0.574032C92.2578 3.63996 94.4762 6.37922 98.3301 8.10291C100.677 9.15207 103.356 9.83303 106.055 10.413C106.98 10.6109 107.308 9.69292 106.433 9.50424Z" fill="#E1D4DB"/>
<path d="M101.515 9.96569C98.4373 9.07871 95.2257 8.35997 92.2817 7.29411C90.8474 6.7788 89.492 6.16577 88.3292 5.40952C87.031 4.55052 86.1702 3.48876 85.3014 2.43254C82.59 -0.9141 81.1739 -4.65061 78.1207 -7.88204C72.4168 -13.9036 61.6243 -17.6028 50.8094 -18.1976C44.7709 -18.529 38.6524 -17.8591 33.1827 -16.0689C32.3362 -15.7917 33.0969 -14.9984 33.9353 -15.27C43.8251 -18.499 55.7899 -17.7482 65.1783 -14.411C70.1727 -12.6333 74.4859 -10.0938 77.3325 -6.88356C80.1704 -3.68904 81.5582 -0.0527627 84.2659 3.18768C85.9336 5.18503 87.8974 6.70695 90.9361 7.89258C94.0414 9.09773 97.5177 9.85208 100.82 10.8023C101.668 11.0459 102.372 10.2144 101.515 9.96569Z" fill="#E1D4DB"/>
<path d="M85.1458 7.21674C68.4545 5.63628 50.6327 5.56012 35.334 0.579925C30.8941 -0.863926 26.8586 -2.72681 23.4078 -5.02405C22.7681 -5.45299 21.765 -4.76369 22.4047 -4.33475C34.8772 3.94463 53.4329 5.72049 70.5162 6.99895C75.2878 7.35722 80.0662 7.67818 84.8162 8.1272C85.7236 8.22024 86.0612 7.30427 85.1458 7.21674Z" fill="#E1D4DB"/>
<path d="M76.8359 1.4984C66.5447 -6.8013 49.7145 -11.042 33.4932 -11.7769C32.5618 -11.8216 32.6031 -10.8825 33.5262 -10.8428C49.1703 -10.1354 65.6589 -6.01859 75.5858 1.98784C76.1537 2.45641 77.4037 1.96697 76.8359 1.4984Z" fill="#E1D4DB"/>
<path d="M62.6273 -0.500618C55.8973 -1.06811 49.6234 -2.92665 43.9983 -5.27451C43.2221 -5.59926 42.5279 -4.76377 43.3041 -4.43902C49.0209 -2.05641 55.4442 -0.159292 62.2896 0.415808C63.205 0.49277 63.5592 -0.424084 62.6273 -0.500618Z" fill="#E1D4DB"/>
<path d="M79.7658 11.0261C72.5392 12.4444 65.1066 13.6137 57.5476 13.5246C49.4544 13.423 42.0184 11.6981 34.9065 9.38161C29.9465 7.76702 24.9013 5.83131 21.9736 2.69006C21.4955 2.17245 20.2483 2.67147 20.7264 3.18908C23.2698 5.91099 27.3358 7.79273 31.5699 9.32023C35.5127 10.7334 39.6558 12.0089 43.9508 12.9305C51.217 14.5008 58.8659 14.8101 66.4855 14.0548C71.1258 13.5892 75.6732 12.8185 80.1673 11.9326C81.0643 11.7502 80.6632 10.8542 79.7658 11.0261Z" fill="#E1D4DB"/>
<path d="M77.4289 14.7281C72.1643 18.519 65.2785 21.2349 57.5428 22.1833C48.745 23.2547 39.8487 21.9989 32.7391 18.5944C28.4497 16.5354 24.8073 13.9777 20.9257 11.6168C20.2551 11.2107 19.2455 11.8936 19.9245 12.3048C27.1428 16.6966 33.9561 21.7025 44.1839 23.0295C52.0381 24.0477 60.2828 23.3455 67.4833 20.9444C71.6511 19.5543 75.3486 17.6205 78.4851 15.3677C79.1088 14.9067 78.0609 14.2722 77.4289 14.7281Z" fill="#E1D4DB"/>
<path d="M54.5827 17.6417C49.4355 17.7601 44.268 17.0676 40.2095 14.9728C39.4897 14.5992 38.487 15.2882 39.2067 15.6619C43.5668 17.9185 49.0584 18.7138 54.6076 18.5797C55.5517 18.5603 55.5185 17.6173 54.5827 17.6417Z" fill="#E1D4DB"/>
<path d="M67.5874 9.78151C61.3249 9.7595 55.1697 9.05671 49.1062 8.16083C48.1987 8.0256 47.8616 8.94015 48.7691 9.07537C54.9482 9.98943 61.2349 10.6994 67.6122 10.7184C68.5561 10.7203 68.5232 9.78888 67.5874 9.78151Z" fill="#E1D4DB"/>
<path d="M35.75 5.0604C32.5389 4.12373 29.3694 3.20192 27.0029 1.46725C26.3861 1.02095 25.3813 1.71152 25.9981 2.15782C28.4491 3.95407 31.752 4.92554 35.0714 5.89659C35.9034 6.14063 36.6068 5.3091 35.75 5.0604Z" fill="#E1D4DB"/>
<path d="M90.8528 -1.78783C89.2475 -6.21147 88.1272 -10.8923 83.7561 -14.5793C79.1558 -18.457 72.2798 -21.2493 64.9187 -22.3809C60.6378 -23.0401 56.1862 -23.1685 51.7893 -22.9103C50.8525 -22.8539 50.8855 -21.9191 51.8223 -21.9755C61.7583 -22.559 71.0817 -20.8937 78.6 -16.7041C82.0105 -14.8049 84.5875 -12.4852 86.1582 -9.74582C87.6765 -7.09017 88.4431 -4.26606 89.4543 -1.51212C89.6727 -0.92241 91.0628 -1.20322 90.8528 -1.78783Z" fill="#E1D4DB"/>
<path d="M113.118 44.236C114.538 41.4513 114.458 38.028 112.959 35.2983C111.925 33.4193 109.534 30.9776 105.854 31.5236C102.631 32.0047 101.259 34.5076 101.284 36.397C101.318 38.5191 102.234 40.7611 103.914 42.5756C104.741 43.4699 105.863 44.3459 107.363 44.7991C108.939 45.2769 110.608 45.1698 112.174 44.6895C113.027 44.429 112.269 43.6388 111.425 43.8937C105.809 45.6073 103.155 39.6729 102.797 37.1887C102.568 35.5905 102.954 33.5051 105.425 32.6201C108.236 31.6097 110.596 33.8776 111.4 35.286C112.939 37.9883 113.12 41.2659 111.709 44.0452C111.417 44.614 112.827 44.8154 113.118 44.236Z" fill="#E1D4DB"/>
<path d="M112.052 44.0621C110.302 42.1831 109.51 40.0034 108.623 37.9005C108.38 37.3183 106.977 37.5988 107.228 38.1755C108.15 40.3517 109.002 42.6094 110.812 44.5557C111.282 45.0684 112.538 44.5743 112.052 44.0621Z" fill="#E1D4DB"/>
<path d="M102.252 46.4901C100.033 45.4671 97.7649 44.4876 95.4019 43.5955C92.7058 42.5742 89.6944 41.4552 86.5396 41.1613C85.4277 41.0579 84.1882 41.0637 83.2268 41.5074C82.1685 41.996 81.8703 42.8516 81.8899 43.6406C81.9171 44.8799 82.4555 46.18 83.6229 47.1563C84.9596 48.2766 86.8825 49.0266 88.9266 49.4872C93.3043 50.4699 99.4298 50.2624 102.196 47.4507C102.703 46.9394 101.416 46.512 100.916 47.0178C98.7607 49.2148 93.8896 49.3737 90.4295 48.8016C88.5218 48.4857 86.6621 47.8983 85.2997 46.9801C84.072 46.1537 83.5082 45.0662 83.3615 43.9308C83.3156 43.5611 83.3018 43.1693 83.4779 42.8097C83.5849 42.5843 83.7995 42.3827 84.0014 42.2873C84.6391 41.9792 85.5925 42.0074 86.458 42.1067C89.2687 42.4202 91.9136 43.3897 94.3426 44.2908C95.7736 44.8257 97.1729 45.3933 98.5481 45.9774C99.0816 46.2072 99.6152 46.4371 100.149 46.6775C100.374 46.7829 100.599 46.8777 100.825 46.9831C101.025 47.0732 101.175 47.1435 101.25 47.1786C102.001 47.5194 103.012 46.836 102.252 46.4901Z" fill="#E1D4DB"/>
<path d="M101.133 46.9546C98.0084 46.6279 95.0507 45.9046 92.0409 45.3364C91.148 45.1688 90.8106 46.0841 91.7036 46.2517C94.7133 46.8199 97.6711 47.5433 100.796 47.87C101.711 47.968 102.056 47.0472 101.133 46.9546Z" fill="#E1D4DB"/>
<path d="M96.4346 37.0606C95.8725 34.6352 95.1456 31.9649 92.71 30.0128C91.2217 28.821 89.0016 27.6218 86.5922 27.3452C85.5608 27.2289 84.4793 27.3208 83.6743 27.7979C82.7486 28.3472 82.4989 29.1918 82.4273 29.9575C82.2512 31.9565 84.1882 33.7519 86.4097 34.9935C88.8408 36.3516 92.026 37.4196 95.3096 37.5514C96.2395 37.5855 96.1982 36.6477 95.2768 36.6187C92.8821 36.5273 90.5135 35.7776 88.5926 34.9047C86.5129 33.9565 84.5759 32.6279 83.9998 30.972C83.6344 29.9313 83.8314 28.0591 86.1145 28.2488C88.1089 28.4089 89.9694 29.4319 91.2594 30.3583C93.7303 32.1451 94.448 34.7891 94.9812 37.0932C95.117 37.6837 96.5705 37.6511 96.4346 37.0606Z" fill="#E1D4DB"/>
<path d="M95.6045 36.3616C93.6335 35.1677 91.8805 33.8458 89.9095 32.6519C89.2357 32.2438 88.2212 32.9301 88.9035 33.3434C90.8745 34.5372 92.6274 35.8592 94.5984 37.053C95.2807 37.4663 96.2867 36.7748 95.6045 36.3616Z" fill="#E1D4DB"/>
<path d="M851.352 -7.69279C864.291 -4.30659 883.147 -3.96224 895.577 -11.4362C895.917 -11.6389 895.901 -11.9697 895.662 -12.1641C893.075 -14.2182 888.78 -15.1926 884.936 -15.9949C880.345 -16.9578 875.789 -17.5238 870.736 -17.3429C866.078 -17.1773 861.886 -16.3913 857.569 -14.7928C855.406 -13.9954 853.323 -13.0805 851.274 -12.1437C850.362 -11.7232 849.443 -11.2953 848.535 -10.8638C847.897 -10.5614 847.049 -10.2954 846.628 -9.84631C846.379 -9.58128 846.508 -9.29848 846.829 -9.163C848.231 -8.54044 849.857 -8.20126 851.352 -7.69279C852.179 -7.4148 853.054 -8.3314 852.216 -8.61306C850.721 -9.12153 849.095 -9.46071 847.697 -10.0723C847.765 -9.84081 847.833 -9.60936 847.898 -9.38894C848.182 -9.69079 849.455 -10.1192 849.965 -10.3589C850.819 -10.7609 851.682 -11.1593 852.539 -11.5503C854.39 -12.3913 856.274 -13.2103 858.225 -13.9265C862.387 -15.4622 866.402 -16.1744 870.892 -16.3214C875.58 -16.476 879.782 -15.9388 884.048 -15.0636C887.76 -14.3088 891.987 -13.3784 894.49 -11.394C894.517 -11.6403 894.548 -11.8756 894.575 -12.1219C888.587 -8.52495 880.835 -6.96135 873.45 -6.58551C866.092 -6.20973 858.725 -6.91083 852.206 -8.61672C851.351 -8.83586 850.477 -7.91925 851.352 -7.69279Z" fill="#DBDBDB"/>
<path d="M849.146 -9.30186C857.132 -10.5004 865.171 -11.0883 873.148 -11.3339C876.582 -11.4392 880.011 -11.6548 883.453 -11.8264C887.048 -12.0018 890.755 -12.1076 894.069 -11.3885C894.963 -11.1951 895.464 -12.2077 894.57 -12.4012C891.375 -13.0874 887.795 -13.0444 884.329 -12.8912C880.639 -12.7303 876.957 -12.4774 873.271 -12.3643C865.151 -12.1111 857.002 -11.4936 848.877 -10.2764C847.876 -10.1238 848.173 -9.14932 849.146 -9.30186Z" fill="#DBDBDB"/>
<path d="M990.023 -60.9269C999.338 -52.1055 1006.8 -42.432 1014.21 -32.9566C1017.44 -28.8372 1020.46 -24.6322 1022.91 -20.3228C1025.18 -16.3107 1027.18 -12.0339 1027.26 -7.86497C1027.29 -5.87857 1027.12 -2.90199 1023.89 -2.14593C1021.48 -1.58174 1018.4 -2.33394 1015.95 -2.87246C1011.63 -3.833 1004.45 -6.11503 1001.79 -2.8314C1000.34 -1.04586 1000.87 1.21697 1001.65 3.23618C1002.71 5.96402 1004.34 8.61794 1005.64 11.2983C1006.9 13.9006 1008.25 16.8552 1007.38 19.46C1006.49 22.101 1002.65 23.7823 998.483 23.6674C993.685 23.5293 989.145 21.2241 985.296 19.3307C981.67 17.5364 977.966 15.4297 973.71 14.4407C969.36 13.4363 965.72 14.535 962.756 16.3424C958.834 18.7207 956.083 21.8329 952.944 24.6534C949.789 27.4949 946.39 29.8316 941.388 31.2855C937.536 32.405 931.051 33.7133 927.363 30.9782C923.372 28.0124 924.806 23.1645 925.945 19.9885C927.404 15.9176 929.688 12.0357 931.781 8.1385C932.612 6.58494 933.419 5.02757 934.098 3.44155C934.28 3.00553 933.541 2.5861 932.931 2.58193C928.609 2.5603 924.138 1.99391 919.883 1.17054C915.721 0.362466 910.538 -0.855691 907.66 -3.27039C904.275 -6.10627 907.448 -9.24485 910.692 -10.936C914.921 -13.1541 920.246 -14.4136 925.122 -15.9666C930.076 -17.5387 935.644 -19.5084 937.467 -23.181C937.642 -23.5314 937.469 -23.9143 936.893 -24.126C931.01 -26.333 924.563 -28.0242 919.226 -30.8765C917.202 -31.9537 914.81 -33.4692 914.845 -35.2385C914.896 -37.7466 919.253 -39.439 922.118 -40.4029C927.042 -42.0587 932.62 -42.7486 938.074 -43.5376C941.913 -44.0991 947.948 -44.2497 948.915 -47.3668C949.134 -48.0808 948.678 -48.4544 947.98 -49.0014C946.775 -49.9696 947.141 -51.1882 947.076 -52.3347C947.028 -52.9499 946.744 -53.9347 947.228 -54.4715C947.754 -55.0806 949.442 -55.2567 950.4 -55.4409C956.382 -56.6333 962.646 -57.2676 968.787 -58.1818C972.188 -58.6959 975.721 -58.9757 979.159 -59.4364C982.823 -59.9237 986.464 -60.47 990.104 -61.0163C991.381 -61.2117 990.611 -62.5434 989.324 -62.3575C982.788 -61.373 976.222 -60.4723 969.578 -59.7183C966.419 -59.3621 963.318 -58.8231 960.187 -58.4232C957.055 -58.0232 953.92 -57.608 950.88 -57.0118C948.659 -56.5827 945.483 -56.2608 944.986 -54.5033C944.741 -53.6121 944.972 -52.6045 945.013 -51.6827C945.082 -50.5514 944.857 -49.4203 946.045 -48.4312C946.261 -48.2463 946.831 -48.0041 946.858 -47.7946C946.991 -46.9527 944.763 -45.9961 943.853 -45.8043C941.248 -45.2402 938.298 -45.0001 935.585 -44.6113C929.78 -43.7844 923.912 -42.889 918.908 -40.8676C916.212 -39.7817 913.217 -38.1133 912.771 -35.8663C912.433 -34.162 913.8 -32.5442 915.628 -31.2462C921.115 -27.3521 929.258 -25.4256 936.048 -22.8981C935.848 -23.2144 935.673 -23.5268 935.474 -23.8431C933.6 -20.0524 927.372 -18.2449 922.273 -16.6806C917.066 -15.0706 911.195 -13.6629 907.254 -10.8619C904.485 -8.88858 902.738 -5.89769 905.3 -3.15562C907.791 -0.480244 912.762 0.979653 916.971 1.96107C922.154 3.17922 927.778 3.94817 933.115 3.96849C932.727 3.67688 932.349 3.39479 931.947 3.10888C930.276 7.03491 927.89 10.7663 925.976 14.6293C924.227 18.1877 922.37 22.0127 922.682 25.9285C922.941 29.1339 924.924 32.6736 930.229 33.6747C935.145 34.6051 940.366 33.3208 944.393 31.9063C949.239 30.2142 952.482 27.5289 955.601 24.6341C958.689 21.7659 961.605 18.3491 966.134 16.3768C970.299 14.5586 974.585 15.9076 978.693 17.7879C982.967 19.7502 986.934 22.1046 991.562 23.6823C995.825 25.138 1000.36 25.5654 1004.36 24.1775C1007.75 23.0064 1009.51 20.823 1009.62 18.2368C1009.84 12.4911 1004.4 7.11344 1003.07 1.46206C1002.68 -0.155074 1002.68 -2.61566 1005.51 -3.06534C1008 -3.45807 1011.17 -2.51918 1013.6 -1.95971C1018.9 -0.737684 1025.98 0.795835 1028.35 -3.35642C1030.09 -6.39683 1029.23 -10.2196 1028.1 -13.4712C1026.55 -17.9667 1023.96 -22.3543 1021.02 -26.6087C1018.17 -30.7622 1014.93 -34.8207 1011.59 -38.8487C1007.37 -43.9571 1003.38 -49.1473 998.874 -54.1607C996.585 -56.7007 994.175 -59.1894 991.593 -61.6192C990.888 -62.4118 989.203 -61.6987 990.023 -60.9269Z" fill="#DBDBDB"/>
<path d="M989.643 -62.7426C986.493 -50.5953 978.443 -39.5376 971.171 -28.5446C967.362 -22.7936 963.689 -16.9887 959.73 -11.2858C955.553 -5.268 951.285 0.719034 947.269 6.79466C945.07 10.1081 942.95 13.4581 940.969 16.8467C939.98 18.5333 939.026 20.2334 938.119 21.9412C937.174 23.7066 936.597 25.5395 935.676 27.3088C935.262 28.1253 937.208 28.8071 937.636 27.9848C938.376 26.5287 938.824 25.0012 939.575 23.5546C940.387 21.9986 941.233 20.456 942.116 18.9116C943.883 15.8226 945.766 12.7684 947.726 9.75073C951.726 3.58477 956.024 -2.48488 960.252 -8.56612C964.37 -14.4898 968.258 -20.4829 972.193 -26.4683C975.869 -32.0656 979.685 -37.6244 983.1 -43.32C986.759 -49.4536 990.014 -55.7642 991.724 -62.397C991.979 -63.2712 989.87 -63.6053 989.643 -62.7426Z" fill="#DBDBDB"/>
<path d="M954.801 16.0102C954.1 13.4425 953.499 10.8597 952.996 8.27691C952.422 5.35231 951.872 2.37645 951.987 -0.522982C952.014 -1.19515 950.84 -1.67637 950.118 -1.16418C945.328 2.21243 939.691 5.01121 934.998 8.44295C934.142 9.06708 935.806 10.029 936.663 9.40491C941.355 5.97317 946.993 3.17439 951.782 -0.202222C951.161 -0.421019 950.525 -0.63412 949.913 -0.843415C949.785 2.11678 950.291 5.12487 950.879 8.09885C951.392 10.7462 952.002 13.3936 952.724 16.0353C952.956 16.9147 955.044 16.899 954.801 16.0102Z" fill="#DBDBDB"/>
<path d="M980.712 10.9378C971.069 2.31515 967.571 -7.67171 964.393 -17.6302C964.273 -18.0158 963.625 -18.4638 962.983 -18.2873C953.248 -15.5106 943.283 -13.0595 933.511 -10.3355C932.331 -10.0126 933.086 -8.68247 934.279 -9.01099C944.051 -11.735 954.016 -14.1862 963.752 -16.9629C963.283 -17.1869 962.811 -17.3959 962.342 -17.62C965.604 -7.43763 969.188 2.81258 979.064 11.6366C979.875 12.3837 981.547 11.6887 980.712 10.9378Z" fill="#DBDBDB"/>
<path d="M994.771 -8.74726C985.969 -16.5177 981.566 -25.8924 977.355 -34.83C977.152 -35.2765 976.273 -35.4503 975.767 -35.2359C966.984 -31.5961 956.135 -30.4682 947.356 -26.8435C946.28 -26.4015 947.516 -25.2179 948.605 -25.6656C957.374 -29.2997 968.233 -30.4182 977.016 -34.058C976.49 -34.1901 975.954 -34.3317 975.427 -34.4638C979.708 -25.4056 984.195 -15.916 993.106 -8.04186C993.946 -7.30495 995.611 -8.01035 994.771 -8.74726Z" fill="#DBDBDB"/>
<path d="M445.459 -5.002C439.561 -8.14011 432.61 -11.0872 425.608 -11.799C418.967 -12.4771 413.738 -10.4535 411.173 -6.63821C408.837 -3.16619 408.427 1.09725 408.639 5.17354C408.877 9.7303 409.976 14.504 412.388 19.0539C414.103 22.2738 416.579 25.7565 421.255 27.5568C425.336 29.1335 429.814 28.9532 433.651 28.2809C438.33 27.4651 442.531 25.8883 446.404 24.1282C450.047 22.4867 453.766 20.6558 456.659 18.4297C460.383 15.5665 462.142 11.6224 459.925 7.2916C457.371 2.30215 451.382 -1.33636 445.873 -5.01089C445.132 -5.50404 444.086 -4.92107 444.833 -4.42017C449.516 -1.30023 454.578 1.71728 457.486 5.75792C459.999 9.24007 460.019 12.7966 457.594 15.6741C455.374 18.2898 451.685 20.1594 448.195 21.9189C444.79 23.6274 441.155 25.1826 437.179 26.3144C433.581 27.3437 429.391 28.1678 425.076 27.5354C420.616 26.8765 417.506 24.4932 415.478 21.6675C412.661 17.7614 411.294 13.4726 410.58 9.41963C409.841 5.22326 409.761 0.933293 411.048 -2.94882C412.477 -7.27213 416.282 -10.9729 423.399 -10.9109C430.763 -10.8501 438.536 -7.49736 444.722 -4.21203C445.558 -3.77259 446.285 -4.55979 445.459 -5.002Z" fill="#D3CBCF"/>
<path d="M438.213 -3.00965C438.121 -2.53233 437.905 -2.08738 437.651 -1.66027C437.632 -1.63633 437.623 -1.61517 437.604 -1.59123C437.646 -1.64969 437.627 -1.62575 437.6 -1.58065C437.568 -1.52496 437.531 -1.47708 437.499 -1.42139C437.43 -1.31782 437.35 -1.21147 437.275 -1.1157C437.116 -0.903006 436.946 -0.687528 436.776 -0.47205C436.607 -0.256572 436.682 0.0815885 437.07 0.260056C437.409 0.423455 437.902 0.432087 438.09 0.192667C438.758 -0.666464 439.461 -1.54452 439.663 -2.57046C439.692 -2.71026 439.691 -2.82334 439.583 -2.96377C439.492 -3.0808 439.305 -3.20958 439.131 -3.25702C438.772 -3.34913 438.266 -3.27867 438.213 -3.00965Z" fill="#D3CBCF"/>
<path d="M452.288 4.65197C452.292 4.75428 452.297 4.85659 452.302 4.9589C452.301 5.00617 452.301 5.05343 452.29 5.10347C452.287 5.13238 452.279 5.15351 452.276 5.18242C452.278 5.20077 452.254 5.2825 452.272 5.19298C452.29 5.10347 452.266 5.1852 452.268 5.20355C452.265 5.23246 452.257 5.25358 452.254 5.2825C452.243 5.33254 452.222 5.38536 452.211 5.4354C452.183 5.52769 452.139 5.61497 452.095 5.70226C452.067 5.74729 452.05 5.78954 452.023 5.83457C451.977 5.90351 452.023 5.83458 452.036 5.80288C452.017 5.82679 452.008 5.84791 451.99 5.87182C451.929 5.9541 451.858 6.03915 451.787 6.12421C451.716 6.20926 451.629 6.2893 451.552 6.36657C451.498 6.40937 451.454 6.4494 451.4 6.4922C451.361 6.52166 451.27 6.565 451.411 6.48942C451.376 6.50832 451.357 6.53222 451.322 6.55112C451.193 6.64227 451.108 6.74067 451.116 6.87967C451.112 7.00311 451.202 7.16716 451.344 7.27007C451.622 7.46808 452.135 7.58386 452.403 7.39878C452.885 7.04248 453.274 6.64558 453.529 6.17191C453.748 5.7644 453.831 5.30903 453.786 4.8503C453.765 4.58284 453.462 4.28807 453.04 4.24181C452.651 4.20557 452.265 4.36617 452.288 4.65197Z" fill="#D3CBCF"/>
<path d="M427.667 0.104687C427.27 0.866344 426.87 1.6567 426.95 2.54135C426.971 2.8068 427.271 3.09924 427.689 3.14498C428.064 3.18355 428.457 3.02124 428.434 2.73758C428.409 2.52952 428.426 2.32863 428.454 2.12499C428.452 2.10677 428.46 2.0858 428.469 2.06483C428.461 2.19783 428.458 2.1145 428.46 2.0858C428.471 2.03613 428.482 1.98646 428.493 1.93679C428.515 1.83745 428.553 1.74307 428.581 1.65145C428.716 1.26898 428.907 0.909124 429.097 0.549268C429.226 0.31801 428.941 -0.0345938 428.571 -0.13056C428.156 -0.251906 427.805 -0.147544 427.667 0.104687Z" fill="#D3CBCF"/>
<path d="M439.246 5.41845C439.102 6.16123 438.706 6.85022 438.341 7.5309C438.217 7.77092 438.498 8.11738 438.87 8.21386C439.281 8.32807 439.645 8.22055 439.773 7.97001C440.128 7.2921 440.524 6.6031 440.677 5.85755C440.706 5.71842 440.705 5.60589 440.597 5.4662C440.507 5.34979 440.321 5.22173 440.148 5.1746C439.959 5.12248 439.746 5.10473 439.588 5.15683C439.435 5.1984 439.27 5.28985 439.246 5.41845Z" fill="#D3CBCF"/>
<path d="M417.133 3.40276C416.878 4.71162 416.399 5.9694 416.145 7.27826C416.096 7.53376 416.252 7.84585 416.669 7.9563C417.018 8.05743 417.517 7.98724 417.564 7.71358C417.818 6.40472 418.297 5.14694 418.551 3.83808C418.6 3.58258 418.444 3.27048 418.027 3.16004C417.684 3.06662 417.185 3.1368 417.133 3.40276Z" fill="#D3CBCF"/>
<path d="M428.851 8.84131C428.729 9.52354 428.818 10.2412 428.697 10.9234C428.677 11.0401 428.797 11.2115 428.92 11.3078C429.043 11.4041 429.248 11.4965 429.431 11.5117C429.63 11.5318 429.825 11.5157 429.951 11.4257C430.093 11.3407 430.135 11.2365 430.153 11.1017C430.275 10.4195 430.186 9.70186 430.307 9.01962C430.327 8.9029 430.208 8.73153 430.084 8.63522C429.961 8.53891 429.756 8.44651 429.573 8.43134C429.374 8.41126 429.179 8.42734 429.053 8.51731C428.917 8.61003 428.869 8.70651 428.851 8.84131Z" fill="#D3CBCF"/>
<path d="M444.55 13.0971C443.881 13.9516 443.329 14.8601 442.543 15.6607C442.339 15.8675 442.48 16.2285 442.838 16.3983C443.213 16.5731 443.654 16.5589 443.867 16.3308C444.647 15.5223 445.206 14.6217 445.875 13.7672C446.046 13.5502 445.97 13.2095 445.579 13.0296C445.233 12.8755 444.736 12.8666 444.55 13.0971Z" fill="#D3CBCF"/>
<path d="M421.178 12.7967C421.009 13.6925 420.603 14.5217 420.423 15.4202C420.394 15.5587 420.395 15.6707 420.502 15.8096C420.592 15.9254 420.777 16.0528 420.949 16.0996C421.298 16.201 421.798 16.1308 421.845 15.8566C422.015 14.9608 422.421 14.1316 422.601 13.2331C422.629 13.0946 422.629 12.9826 422.521 12.8437C422.431 12.7279 422.247 12.6005 422.075 12.5537C421.731 12.4601 421.231 12.5303 421.178 12.7967Z" fill="#D3CBCF"/>
<path d="M434.021 16.0016C433.575 16.837 433.156 17.6746 432.781 18.5378C432.683 18.7806 432.922 19.1206 433.312 19.2224C433.707 19.332 434.104 19.2343 434.216 18.9782C434.581 18.1178 435.011 17.2774 435.457 16.442C435.581 16.2015 435.3 15.8542 434.926 15.7575C434.514 15.6429 434.15 15.7506 434.021 16.0016Z" fill="#D3CBCF"/>
<path d="M421.984 21.0313C421.591 21.7776 421.203 22.5134 420.805 23.2519C420.68 23.4927 420.963 23.8405 421.337 23.9374C421.749 24.0522 422.114 23.9444 422.243 23.6931C422.641 22.9546 423.023 22.211 423.422 21.4725C423.546 21.2317 423.264 20.8839 422.89 20.787C422.487 20.6694 422.123 20.7772 421.984 21.0313Z" fill="#D3CBCF"/>
<path d="M414.653 18.1662C414.678 18.3742 414.661 18.5751 414.634 18.7788C414.635 18.797 414.627 18.818 414.619 18.839C414.627 18.7059 414.629 18.7893 414.627 18.818C414.616 18.8677 414.605 18.9173 414.594 18.967C414.573 19.0664 414.535 19.1607 414.507 19.2524C414.371 19.6349 414.181 19.9948 413.991 20.3547C413.867 20.5937 414.146 20.9386 414.517 21.0345C414.925 21.1481 415.287 21.041 415.414 20.7915C415.812 20.0298 416.211 19.2394 416.131 18.3546C416.111 18.0892 415.81 17.7967 415.392 17.751C415.013 17.7229 414.621 17.8852 414.653 18.1662Z" fill="#D3CBCF"/>
<path d="M433.294 21.668C433.241 21.9375 433.144 22.1997 432.982 22.4417C433.006 22.4072 433.023 22.3648 433.056 22.3274C432.863 22.6252 432.597 22.8951 432.303 23.1444C432.205 23.2275 432.184 23.3937 432.228 23.5143C432.278 23.6426 432.42 23.7934 432.581 23.8727C432.753 23.9492 432.95 24.0096 433.139 23.9963C433.339 23.9803 433.476 23.9151 433.599 23.8158C434.156 23.3257 434.6 22.7713 434.727 22.1135C434.756 21.9735 434.755 21.8602 434.646 21.7196C434.555 21.6023 434.368 21.4733 434.193 21.4258C434.002 21.3733 433.789 21.3553 433.629 21.4076C433.485 21.4466 433.319 21.5386 433.294 21.668Z" fill="#D3CBCF"/>
<path d="M454.97 10.4117C454.524 11.247 453.925 12.0294 453.73 12.9475C453.701 13.0869 453.701 13.1997 453.81 13.3397C453.9 13.4564 454.087 13.5847 454.26 13.632C454.613 13.7343 455.118 13.6639 455.165 13.3879C455.344 12.4648 455.959 11.6873 456.406 10.8521C456.536 10.6194 456.248 10.2644 455.875 10.1676C455.457 10.0453 455.109 10.1579 454.97 10.4117Z" fill="#D3CBCF"/>
<path d="M879.332 244.59C889.807 237.521 900.557 229.907 906.96 220.773C910.072 216.328 911.413 211.771 912.24 207.093C913.09 202.241 913.215 196.998 916.318 192.314C918.054 189.693 920.547 187.302 923.4 185.154C924.856 184.051 926.398 183.019 928.018 182.033C928.847 181.525 929.703 181.036 930.553 180.556C931.214 180.187 932 179.536 932.75 179.324C933.779 179.029 933.378 177.959 932.349 178.254C931.139 178.598 930.518 179.184 929.517 179.766C928.108 180.594 926.683 181.406 925.334 182.285C922.641 184.034 920.163 185.959 918.061 188.056C916.062 190.057 914.449 192.235 913.424 194.514C912.36 196.876 911.942 199.337 911.509 201.728C910.611 206.748 910.219 211.863 907.704 216.809C905.139 221.835 900.68 226.527 895.813 230.769C890.447 235.441 884.362 239.714 878.195 243.875C877.373 244.428 878.521 245.147 879.332 244.59Z" fill="#DCD3D7"/>
<path d="M899.854 224.841C891.82 227.421 883.513 222.919 879.445 219.298C877.34 217.427 875.338 215.053 875.491 212.441C875.542 211.456 876.001 210.451 877.024 209.619C878.212 208.661 880.497 207.706 882.206 207.698C884.245 207.691 884.294 209.552 884.388 210.616C884.519 212.036 884.445 213.537 885.01 214.868C886.181 217.609 891.275 218.909 895.481 217.51C899.628 216.127 901.471 212.588 900.213 210.043C898.853 207.277 895.304 205.295 892.239 203.474C889.285 201.72 884.969 199.881 884.01 197.049C883.316 194.967 884.253 192.663 885.988 190.648C886.295 190.298 887.437 188.724 888.209 188.684C888.252 188.686 888.681 189.33 888.782 189.516C889.986 191.945 889.77 195.049 892.183 197.037C894.445 198.901 899.143 199.3 901.594 196.661C904.088 193.968 903.431 191.118 902.409 188.579C901.784 187.029 900.96 185.14 902.379 183.452C903.208 182.472 906.365 180.506 908.086 181.135C909.878 181.787 908.761 184.235 910.089 185.211C912.47 186.967 917.108 182.964 917.772 181.477C918.566 179.652 917.999 177.798 917.454 176.117C916.818 174.164 916.111 172.189 916.078 170.109C916.035 167.86 917.111 165.732 919.482 163.858C921.458 162.296 924.126 161.225 926.83 160.455C929.367 159.722 932.51 159.076 934.952 159.671C937.164 160.218 937.734 161.561 936.554 163.089C934.931 165.205 930.565 167.756 931.545 170.182C932.001 171.302 933.706 172.149 935.456 172.164C937.386 172.179 939.355 171.405 941.077 170.711C943.352 169.786 945.55 168.682 947.963 167.989C950.571 167.245 952.942 167.563 955.148 168.297C959.609 169.78 962.614 173.43 958.934 177.004C955.426 180.409 949.453 180.274 944.488 181.372C939.434 182.488 930.61 187.54 937.08 190.175C939.544 191.178 942.575 191.609 945.376 192.17C948.027 192.696 951.239 193.217 953.134 194.579C954.784 195.765 954.032 197.992 951.604 198.992C948.945 200.088 945.386 199.405 942.908 198.999C936.995 198.048 928.903 195.481 922.454 198.382C918.268 200.265 916.627 203.832 917.523 206.722C918.543 210.007 923.112 212.302 928.401 210.613C930.857 209.833 933.029 208.543 935.583 207.971C937.97 207.437 941.039 207.714 942.727 208.745C945.378 210.339 942.549 213.162 940.159 214.641C936.767 216.746 932.545 217.695 928.538 217.152C925.512 216.734 920.484 215.354 917.655 217.633C914.481 220.183 917.648 222.225 919.679 223.84C921.036 224.925 921.237 226.133 919.335 227.406C917.665 228.527 915.294 228.644 913.317 228.503C909.47 228.221 905.598 227.063 902.71 225.519C901.899 225.08 900.6 226.027 901.423 226.469C904.42 228.081 908.326 229.271 912.309 229.661C916.039 230.03 921.188 229.199 922.434 226.033C923.602 223.089 918.057 222.44 918.079 219.877C918.101 216.045 926.446 218.2 928.968 218.464C932.823 218.882 937.077 217.787 940.397 215.949C943.127 214.441 946.001 211.999 945.482 209.67C944.887 207.017 939.719 206.095 936.09 206.692C933.473 207.122 931.252 208.308 928.861 209.208C925.751 210.377 922.639 210.243 920.665 208.523C917.723 205.938 918.653 200.962 923.962 199.068C927.403 197.846 931.394 198.372 934.647 198.861C938.298 199.416 941.816 200.276 945.58 200.621C948.254 200.865 951.506 200.831 953.734 199.202C955.754 197.732 956.467 195.57 954.975 194.121C953.368 192.559 950.247 191.91 947.614 191.345C944.615 190.712 941.404 190.281 938.64 189.331C936.384 188.548 935.67 187.45 937.737 185.815C939.366 184.526 941.437 183.393 943.698 182.776C946.256 182.072 948.92 181.857 951.535 181.393C956.567 180.504 961.443 178.099 962.257 174.366C962.998 171.011 959.66 168.305 955.69 167.084C953.675 166.464 951.323 166.086 948.921 166.548C946.537 167.006 944.314 168.013 942.184 168.926C940.311 169.73 937.536 171.202 935.361 170.955C933.068 170.706 932.777 169.226 933.827 167.891C935.555 165.686 940.01 163.062 938.781 160.537C937.143 157.163 930.101 158.223 925.958 159.475C920.629 161.084 915.786 163.956 914.597 167.94C914.005 169.939 914.366 171.897 914.867 173.775C915.412 175.801 916.48 177.831 916.356 179.974C916.301 181.036 915.834 182.105 914.657 182.978C914.147 183.355 912.671 184.37 911.846 184.383C910.959 184.4 910.988 183.441 910.883 182.952C910.499 181.221 909.75 179.333 906.416 180.009C904.111 180.48 901.752 181.724 900.642 183.24C899.498 184.78 899.742 186.424 900.221 187.895C900.728 189.441 901.706 190.91 901.574 192.572C901.477 193.866 901.02 195.539 899.579 196.62C897.758 197.996 894.866 197.217 893.591 196.213C892.305 195.206 891.937 193.602 891.533 192.276C891.179 191.144 890.694 186.455 887.414 187.683C885.293 188.477 883.789 190.829 883.006 192.224C881.969 194.052 881.669 196.006 882.363 197.744C883.482 200.547 887.51 202.387 890.501 204.152C893.642 206.008 897.983 208.178 898.768 211.256C899.165 212.825 898.086 214.829 896.018 215.94C893.535 217.279 890.232 217.03 888.229 215.925C884.916 214.094 887.047 210.299 885.427 207.809C883.866 205.393 878.877 206.774 876.311 208.466C873.771 210.143 873.35 212.461 873.93 214.464C875.447 219.759 882.378 224.339 889.563 226.059C892.829 226.841 896.627 227.074 900.221 225.921C901.347 225.6 900.939 224.496 899.854 224.841Z" fill="#DCD3D7"/>
<path d="M-88.9418 279.193C-67.1112 274.603 -45.4527 267.337 -28.6931 254.583C-7.73878 238.638 3.16188 218.521 18.07 200.25C22.2727 195.092 26.9247 190.151 31.9313 185.301C35.3045 182.029 39.6331 177.683 45.0001 176.138C44.6085 175.946 44.217 175.755 43.8451 175.556C43.4256 177.361 41.4298 178.905 39.6188 180.282C37.8409 181.632 36.0509 182.934 34.4073 184.372C30.3871 187.901 26.8469 191.734 23.6365 195.606C19.0703 201.108 14.7962 206.906 11.5976 212.738C9.96795 215.711 8.49705 218.846 8.48102 221.848C8.48021 222.204 8.96254 222.393 9.44382 222.317C14.9449 221.505 20.4366 220.195 25.8945 218.959C32.4205 217.478 38.9284 215.937 45.4783 214.554C48.1738 213.986 50.8688 213.44 53.5811 213.003C55.3112 212.724 57.2636 212.357 58.9532 212.472C59.2768 212.499 59.7357 212.567 59.7739 212.599C59.8251 212.633 59.8078 212.526 59.7534 212.652C59.74 212.672 59.4974 213.124 59.431 213.201C58.9676 213.673 56.7065 214.235 55.6771 214.487C48.4906 216.245 41.1362 217.343 33.9056 218.722C28.9528 219.669 24.012 220.665 19.0755 221.766C16.4771 222.345 13.8844 222.959 11.3041 223.599C10.5547 223.788 9.58594 223.927 8.90497 224.257C8.12557 224.646 7.37162 225.375 6.74521 225.89C0.660756 230.82 -3.9694 236.596 -8.72346 242.09C-14.0221 248.221 -19.8075 254.059 -27.0638 259.233C-35.5764 265.286 -45.3272 270.394 -55.7774 274.192C-66.0053 277.903 -76.6648 280.526 -87.1009 283.637C-86.7266 283.721 -86.3394 283.808 -85.9651 283.892C-86.9714 282.376 -87.8033 280.577 -87.1745 278.681C-86.8981 277.845 -88.6805 277.824 -88.9569 278.66C-89.6352 280.764 -88.8214 282.812 -87.7023 284.515C-87.4947 284.826 -87.0884 284.929 -86.5666 284.77C-76.8741 281.884 -67.0218 279.424 -57.483 276.123C-47.8069 272.772 -38.7718 268.425 -30.5543 263.169C-22.5342 258.052 -15.6906 252.141 -9.97764 245.723C-4.86855 239.986 -0.215046 234.02 5.70432 228.604C6.95279 227.468 8.5509 225.721 10.3851 225.108C12.9567 224.259 15.8515 223.77 18.4959 223.167C23.6345 222.008 28.8032 220.96 33.9706 219.98C41.4745 218.547 49.1722 217.469 56.5957 215.534C57.9448 215.181 60.0353 214.719 60.8919 213.725C61.4164 213.118 61.8625 212.228 61.2577 211.689C60.5448 211.045 58.9417 211.134 57.7927 211.209C55.5855 211.358 53.3541 211.742 51.1546 212.146C38.3098 214.485 25.6404 218.072 12.8008 220.47C11.649 220.683 10.491 220.883 9.33339 221.061C9.66087 221.215 9.96874 221.376 10.2962 221.53C10.3204 218.761 11.7159 215.828 13.2109 213.101C14.9145 209.995 16.9734 206.958 19.1417 203.957C23.9316 197.342 29.2072 190.756 35.9595 184.871C39.1937 182.052 44.7819 179.198 45.6207 175.587C45.7481 175.063 45.131 174.809 44.4657 175.005C39.9399 176.313 36.1982 179.536 33.1671 182.251C29.0069 185.967 25.1666 189.894 21.604 193.871C13.4898 202.95 6.90245 212.5 -0.0907562 221.923C-7.25069 231.574 -14.9761 240.983 -24.793 249.634C-32.5305 256.46 -41.9589 262.285 -52.3394 266.802C-63.9955 271.872 -76.4996 275.301 -89.0394 277.939C-90.1916 278.175 -90.1137 279.436 -88.9418 279.193Z" fill="#D7D7D7"/>
<path d="M21.7286 223.474C22.3205 218.241 27.0923 213.026 32.6597 208.981C38.4074 204.81 45.8308 201.228 53.44 199.933C57.4838 199.243 61.2856 199.403 64.7807 200.306C69.2607 201.469 73.1292 203.094 78.5619 202.325C83.4075 201.643 88.1353 200.09 92.9478 199.139C96.6254 198.417 100.37 198.208 103.825 198.602C110.153 199.335 115.318 202.193 116.335 206.777C117.539 212.221 113.587 218.708 105.817 222.048C102.252 223.58 98.365 224.494 94.5324 225.171C90.5768 225.869 86.5459 226.111 82.6629 227.359C75.4389 229.676 71.6798 234.66 65.7136 238.155C57.3346 243.062 45.55 243.473 37.2298 241.594C32.8197 240.6 28.6296 238.81 26.4341 235.967C24.2514 233.151 24.0133 229.605 22.1674 226.66C21.7122 225.943 19.8855 226.592 20.3542 227.312C22.0705 230.039 22.4204 233.241 24.1643 235.95C25.9211 238.685 29.0949 240.599 32.8777 241.896C40.3828 244.466 50.2526 244.697 59.3031 242.206C63.3932 241.086 66.8994 239.232 70.0246 236.916C72.8998 234.783 75.3958 232.365 78.6709 230.509C82.7543 228.199 87.0804 227.617 91.695 226.932C95.8114 226.317 99.9943 225.514 103.962 224.142C112.242 221.281 117.418 215.951 118.311 209.94C119.07 204.803 115.93 200.531 109.967 198.474C103.189 196.134 95.3711 197.122 87.4571 199.087C84.6915 199.77 81.9045 200.484 79.1051 200.922C75.821 201.432 73.0504 201.104 70.272 200.334C66.1042 199.19 62.2332 197.886 57.2698 198.174C49.5762 198.618 41.7178 201.725 35.3753 205.542C28.9497 209.411 23.2785 214.467 20.8579 219.944C20.2839 221.234 19.9686 222.509 19.8233 223.785C19.73 224.668 21.6431 224.323 21.7286 223.474Z" fill="#D7D7D7"/>
<path d="M30.2786 220.385C33.4806 214.016 42.0441 209.208 49.075 204.865C50.015 204.287 49.0632 203.342 48.1168 203.93C40.8511 208.412 32.0203 213.431 28.7027 220.023C28.2976 220.827 29.8671 221.199 30.2786 220.385Z" fill="#D7D7D7"/>
<path d="M33.4671 222.848C40.9774 227.056 51.3734 231.257 62.4975 227.848C63.773 227.459 63.1186 226.178 61.8576 226.57C51.5379 229.732 41.7218 225.452 34.8138 221.597C33.8778 221.067 32.5311 222.318 33.4671 222.848Z" fill="#D7D7D7"/>
<path d="M63.5887 218.028C77.6314 214.472 92.124 215.473 105.888 210.378C107.08 209.932 106.5 208.74 105.308 209.187C91.7262 214.224 77.3591 213.202 63.4913 216.711C62.2754 217.006 62.3445 218.342 63.5887 218.028Z" fill="#D7D7D7"/>
<path d="M64.6024 218.168C70.4096 218.422 75.3037 220.354 80.6037 221.501C85.8891 222.644 91.4067 222.756 97.1859 220.789C98.4387 220.358 97.802 219.084 96.5492 219.516C84.6288 223.575 75.7901 217.179 64.994 216.71C63.7268 216.648 63.3425 218.121 64.6024 218.168Z" fill="#D7D7D7"/>
<path d="M64.8709 215.762C67.6101 210.199 76.5574 208.083 83.4007 206.651C84.5788 206.401 84.5051 205.13 83.3139 205.377C75.8352 206.947 66.209 209.353 63.2341 215.398C62.825 216.225 64.4551 216.599 64.8709 215.762Z" fill="#D7D7D7"/>
<path d="M60.3736 206.131C56.5909 208.731 54.0822 211.919 51.3672 215.049C51.0914 215.368 51.0467 215.731 51.4338 215.933C51.746 216.096 52.3963 216.043 52.6722 215.723C55.2868 212.706 57.6954 209.562 61.3341 207.053C62.2171 206.456 61.2629 205.524 60.3736 206.131Z" fill="#D7D7D7"/>
<path d="M51.6028 220.947C55.7782 223.692 61.5766 224.971 66.9988 226.321C68.1338 226.61 69.0406 225.204 67.9056 224.915C62.628 223.597 57.0321 222.363 52.9578 219.691C52.0837 219.126 50.7432 220.385 51.6028 220.947Z" fill="#D7D7D7"/>
<path d="M35.4872 222.543C34.2705 224.959 34.2285 227.564 34.7252 229.844C35.2212 232.148 36.3606 234.687 39.2405 235.802C40.1919 236.163 41.4541 235.042 40.5096 234.67C37.9641 233.687 36.9699 231.425 36.56 229.374C36.1551 227.382 36.0712 225.03 37.1413 222.897C37.5472 222.077 35.9069 221.703 35.4872 222.543Z" fill="#D7D7D7"/>
<path d="M48.9797 228.456C48.428 231.661 48.9334 235.381 52.6451 237.006C53.5648 237.407 54.8554 236.28 53.9293 235.865C50.7336 234.471 50.3425 231.211 50.8146 228.458C50.8783 228.096 50.6256 227.794 50.0968 227.784C49.6276 227.798 49.0364 228.104 48.9797 228.456Z" fill="#D7D7D7"/>
<path d="M7.26083 208.694C4.79477 207.067 3.87369 204.4 3.38155 201.944C2.87688 199.463 2.77724 196.828 3.17706 194.211C3.56436 191.567 4.32767 188.88 5.36632 186.23C6.37027 183.654 7.70017 180.93 10.1047 178.642C12.1588 176.694 14.4387 175.458 17.6044 175.116C20.559 174.797 23.4966 174.903 26.4609 174.191C32.092 172.829 35.3452 169.196 38.1029 165.651C41.479 161.302 44.8624 156.92 51.7182 154.97C58.342 153.096 65.4448 153.408 70.7062 155.575C75.7982 157.682 79.5454 161.778 78.843 166.534C78.2823 170.347 73.8498 172.986 69.7694 175.483C65.1948 178.288 61.0411 181.36 60.511 185.528C60.2142 187.971 61.1085 190.121 61.9294 192.312C62.2503 193.173 62.6263 194.198 61.9381 195.171C60.9164 196.594 58.3094 197.49 56.4839 198.164C55.3621 198.577 55.906 199.731 57.0346 199.309C59.7958 198.296 63.416 196.858 64.0724 194.507C64.6145 192.525 63.1598 190.693 62.6774 188.913C62.0675 186.699 62.0611 184.281 63.7494 181.962C65.0771 180.131 67.2518 178.628 69.4299 177.254C73.6257 174.609 78.5565 172.034 80.1844 168.156C82.0917 163.621 79.3502 159.017 75.4045 156.305C71.0321 153.29 64.4811 151.94 57.7037 152.571C50.6231 153.229 44.5188 155.915 40.3145 160.509C36.84 164.313 34.4311 169.725 28.5429 172.18C22.7878 174.572 16.3403 172.489 11.0625 176.067C7.87187 178.227 5.97482 181.011 4.62388 183.789C3.01639 187.102 1.99199 190.51 1.43633 193.847C0.942097 196.827 1.00705 199.803 1.63517 202.613C2.23313 205.313 3.3243 208.017 6.02361 209.79C6.78646 210.331 8.03109 209.202 7.26083 208.694Z" fill="#D7D7D7"/>
<path d="M59.9079 164.647C58.5141 175.713 45.231 187.471 29.3529 189.087C28.2124 189.202 28.3111 190.455 29.4516 190.34C46.0497 188.649 60.2063 176.247 61.6513 164.658C61.757 163.85 60.0138 163.817 59.9079 164.647Z" fill="#D7D7D7"/>
<path d="M49.4947 164.657C46.8847 169.472 43.1252 174.117 38.5866 178.244C37.8394 178.928 39.1172 179.597 39.8767 178.916C44.5248 174.703 48.3873 169.937 51.0514 165.012C51.4538 164.224 49.9155 163.863 49.4947 164.657Z" fill="#D7D7D7"/>
<path d="M23.4986 176.523C22.0116 178.44 21.4576 180.569 21.3096 182.572C21.1628 184.507 21.4318 186.502 22.4633 188.144C22.901 188.838 24.6041 188.218 24.1665 187.523C23.2164 186.003 22.9827 184.199 23.0886 182.415C23.1953 180.585 23.7464 178.639 25.096 176.885C25.7052 176.096 24.1012 175.744 23.4986 176.523Z" fill="#D7D7D7"/>
<path d="M11.2338 181.098C10.09 184.293 9.51114 187.557 9.60578 190.683C9.69047 193.668 10.3836 196.813 12.9544 198.936C13.6451 199.506 15.188 198.605 14.4974 198.035C12.0417 196.007 11.4823 192.997 11.4273 190.145C11.368 187.188 11.9491 184.121 13.0174 181.106C13.322 180.274 11.5321 180.253 11.2338 181.098Z" fill="#D7D7D7"/>
<path d="M54.2365 190.869C49.6973 193.793 44.1068 195.792 38.5668 196.958C33.381 198.043 27.7901 198.547 23.1752 197.443C22.0917 197.185 21.1929 198.497 22.2764 198.755C27.186 199.935 33.1494 199.439 38.6685 198.281C44.5346 197.053 50.4663 194.947 55.2793 191.853C56.2701 191.212 55.2482 190.22 54.2365 190.869Z" fill="#D7D7D7"/>
<path d="M42.5588 190.989C39.353 192.586 37.3248 194.919 35.379 197.259C35.1093 197.584 35.3842 197.965 35.7636 198.052C36.2316 198.159 36.6968 197.936 36.9474 197.618C38.7326 195.48 40.5934 193.382 43.5061 191.922C43.9331 191.713 44.0205 191.244 43.7821 191.007C43.506 190.739 42.9922 190.77 42.5588 190.989Z" fill="#D7D7D7"/>
<path d="M50.0527 173.671C49.5863 176.542 48.7305 179.45 48.6917 182.293C48.6806 183.112 50.4638 182.799 50.4749 181.981C50.5187 179.241 51.3537 176.454 51.7996 173.681C51.8554 173.329 51.6108 173.034 51.1072 173.021C50.6672 173.024 50.1085 173.319 50.0527 173.671Z" fill="#D7D7D7"/>
<path d="M39.5885 166.986C39.9809 169.764 40.3733 172.542 40.7658 175.32C40.8842 176.123 42.716 175.812 42.6044 174.998C42.2119 172.22 41.8195 169.442 41.4271 166.664C41.3217 165.864 39.4768 166.172 39.5885 166.986Z" fill="#D7D7D7"/>
</g>
</svg>
