<svg width="20" height="19" viewBox="0 0 20 19" fill="none" xmlns="http://www.w3.org/2000/svg">
<path d="M14.3197 1.72401C15.3842 1.72707 16.4042 2.13565 17.157 2.86052C17.9097 3.58539 18.334 4.56764 18.3372 5.59275V13.3294C18.334 14.3545 17.9097 15.3368 17.157 16.0616C16.4042 16.7865 15.3842 17.1951 14.3197 17.1982H6.28543C5.22089 17.1951 4.20086 16.7865 3.44811 16.0616C2.69537 15.3368 2.27107 14.3545 2.26789 13.3294V5.59275C2.27107 4.56764 2.69537 3.58539 3.44811 2.86052C4.20086 2.13565 5.22089 1.72707 6.28543 1.72401H14.3197ZM14.3197 0.176758H6.28543C3.192 0.176758 0.661133 2.61389 0.661133 5.59275V13.3294C0.661133 16.3083 3.192 18.7454 6.28543 18.7454H14.3197C17.4131 18.7454 19.944 16.3083 19.944 13.3294V5.59275C19.944 2.61389 17.4131 0.176758 14.3197 0.176758Z" fill="#274C5B"/>
<path d="M15.5244 5.59354C15.2861 5.59354 15.0531 5.52548 14.8549 5.39796C14.6567 5.27043 14.5022 5.08918 14.411 4.87712C14.3198 4.66506 14.2959 4.43171 14.3424 4.20659C14.3889 3.98147 14.5037 3.77468 14.6723 3.61238C14.8408 3.45007 15.0555 3.33954 15.2893 3.29476C15.5231 3.24998 15.7654 3.27296 15.9856 3.3608C16.2059 3.44864 16.3941 3.59739 16.5265 3.78824C16.6589 3.97909 16.7296 4.20347 16.7296 4.433C16.73 4.5855 16.699 4.73656 16.6386 4.87751C16.5781 5.01846 16.4894 5.14653 16.3774 5.25436C16.2654 5.36219 16.1324 5.44766 15.986 5.50587C15.8397 5.56408 15.6828 5.59387 15.5244 5.59354ZM10.3022 6.36696C10.9378 6.36696 11.5592 6.54847 12.0877 6.88855C12.6163 7.22862 13.0282 7.71198 13.2715 8.2775C13.5147 8.84302 13.5784 9.46531 13.4543 10.0657C13.3303 10.666 13.0242 11.2175 12.5748 11.6503C12.1253 12.0831 11.5526 12.3779 10.9292 12.4973C10.3057 12.6167 9.6595 12.5554 9.07223 12.3212C8.48496 12.087 7.98301 11.6903 7.62985 11.1813C7.2767 10.6724 7.08821 10.074 7.08821 9.46187C7.08912 8.64132 7.42802 7.85463 8.03056 7.27441C8.63309 6.69419 9.45004 6.36784 10.3022 6.36696ZM10.3022 4.81971C9.34871 4.81971 8.41667 5.09197 7.62391 5.60206C6.83115 6.11214 6.21327 6.83715 5.8484 7.68539C5.48353 8.53364 5.38807 9.46702 5.57408 10.3675C5.76008 11.268 6.21921 12.0952 6.8934 12.7444C7.56759 13.3936 8.42655 13.8357 9.36168 14.0148C10.2968 14.194 11.2661 14.102 12.147 13.7507C13.0278 13.3993 13.7807 12.8043 14.3104 12.0409C14.8401 11.2775 15.1229 10.38 15.1229 9.46187C15.1229 8.23069 14.615 7.04994 13.7109 6.17937C12.8068 5.30879 11.5807 4.81971 10.3022 4.81971Z" fill="#274C5B"/>
</svg>
