<svg width="15" height="14" viewBox="0 0 15 14" fill="none" xmlns="http://www.w3.org/2000/svg">
<path d="M14.1027 11.8076L11.0171 8.83219C11.76 7.87856 12.161 6.7178 12.1597 5.5251C12.1597 2.47858 9.58928 0 6.42993 0C3.27057 0 0.700195 2.47858 0.700195 5.5251C0.700195 8.57162 3.27057 11.0502 6.42993 11.0502C7.6668 11.0515 8.87056 10.6648 9.8595 9.94847L12.9451 12.9238C13.1013 13.0585 13.305 13.1303 13.5144 13.1247C13.7238 13.119 13.923 13.0363 14.0712 12.8934C14.2193 12.7506 14.3051 12.5585 14.311 12.3566C14.3168 12.1546 14.2423 11.9582 14.1027 11.8076ZM2.33726 5.5251C2.33726 4.74456 2.57729 3.98154 3.027 3.33254C3.47671 2.68354 4.1159 2.17771 4.86373 1.87901C5.61157 1.58031 6.43447 1.50215 7.22837 1.65443C8.02227 1.80671 8.75151 2.18257 9.32388 2.7345C9.89625 3.28643 10.286 3.98963 10.444 4.75518C10.6019 5.52072 10.5208 6.31423 10.2111 7.03536C9.90129 7.75649 9.37673 8.37285 8.70369 8.80649C8.03066 9.24014 7.23938 9.4716 6.42993 9.4716C5.34488 9.47034 4.30466 9.05415 3.53741 8.31431C2.77017 7.57447 2.33856 6.57139 2.33726 5.5251Z" fill="#FAFAFA"/>
</svg>
